<svg width="696" height="703" viewBox="0 0 696 703" fill="none" xmlns="http://www.w3.org/2000/svg">
<path d="M0 0H86.6615V87.875H0V0Z" fill="#EB6161"/>
<path d="M86.6615 0H173.323V87.875H86.6615V0Z" fill="#DADADA"/>
<path d="M173.323 0H261.339V87.875H173.323V0Z" fill="#EB6161"/>
<path d="M261.339 0H348V87.875H261.339V0Z" fill="#DADADA"/>
<path d="M348 0H434.661V87.875H348V0Z" fill="#EB6161"/>
<path d="M434.661 0H521.323V87.875H434.661V0Z" fill="#DADADA"/>
<path d="M521.323 0H607.984V87.875H521.323V0Z" fill="#EB6161"/>
<path d="M607.984 0H696V87.875H607.984V0Z" fill="#DADADA"/>
<path d="M0.677043 87.875H87.3385V175.75H0.677043V87.875Z" fill="#DADADA"/>
<path d="M87.3385 87.875H174V175.75H87.3385V87.875Z" fill="#EB6161"/>
<path d="M174 87.875H260.661V175.75H174V87.875Z" fill="#DADADA"/>
<path d="M260.661 87.875H348.677V175.75H260.661V87.875Z" fill="#EB6161"/>
<path d="M348.677 87.875H435.339V175.75H348.677V87.875Z" fill="#DADADA"/>
<path d="M435.339 87.875H522V175.75H435.339V87.875Z" fill="#EB6161"/>
<path d="M522 87.875H608.661V175.75H522V87.875Z" fill="#DADADA"/>
<path d="M608.661 87.875H695.323V175.75H608.661V87.875Z" fill="#EB6161"/>
<path d="M0 175.75H86.6615V263.625H0V175.75Z" fill="#EB6161"/>
<path d="M86.6615 175.75H173.323V263.625H86.6615V175.75Z" fill="#DADADA"/>
<path d="M173.323 175.75H261.339V263.625H173.323V175.75Z" fill="#EB6161"/>
<path d="M261.339 175.75H348V263.625H261.339V175.75Z" fill="#DADADA"/>
<path d="M348 175.75H434.661V263.625H348V175.75Z" fill="#EB6161"/>
<path d="M434.661 175.75H521.323V263.625H434.661V175.75Z" fill="#DADADA"/>
<path d="M521.323 175.75H607.984V263.625H521.323V175.75Z" fill="#EB6161"/>
<path d="M607.984 175.75H696V263.625H607.984V175.75Z" fill="#DADADA"/>
<path d="M0.677043 263.625H87.3385V351.5H0.677043V263.625Z" fill="#DADADA"/>
<path d="M87.3385 263.625H174V351.5H87.3385V263.625Z" fill="#EB6161"/>
<path d="M174 263.625H260.661V351.5H174V263.625Z" fill="#DADADA"/>
<path d="M260.661 263.625H348.677V351.5H260.661V263.625Z" fill="#EB6161"/>
<path d="M348.677 263.625H435.339V351.5H348.677V263.625Z" fill="#DADADA"/>
<path d="M435.339 263.625H522V351.5H435.339V263.625Z" fill="#EB6161"/>
<path d="M522 263.625H608.661V351.5H522V263.625Z" fill="#DADADA"/>
<path d="M608.661 263.625H695.323V351.5H608.661V263.625Z" fill="#EB6161"/>
<path d="M0 351.5H86.6615V439.375H0V351.5Z" fill="#EB6161"/>
<path d="M86.6615 351.5H173.323V439.375H86.6615V351.5Z" fill="#DADADA"/>
<path d="M173.323 351.5H261.339V439.375H173.323V351.5Z" fill="#EB6161"/>
<path d="M261.339 351.5H348V439.375H261.339V351.5Z" fill="#DADADA"/>
<path d="M348 351.5H434.661V439.375H348V351.5Z" fill="#EB6161"/>
<path d="M434.661 351.5H521.323V439.375H434.661V351.5Z" fill="#DADADA"/>
<path d="M521.323 351.5H607.984V439.375H521.323V351.5Z" fill="#EB6161"/>
<path d="M607.984 351.5H696V439.375H607.984V351.5Z" fill="#DADADA"/>
<path d="M0.677043 439.375H87.3385V527.25H0.677043V439.375Z" fill="#DADADA"/>
<path d="M87.3385 439.375H174V527.25H87.3385V439.375Z" fill="#EB6161"/>
<path d="M174 439.375H260.661V527.25H174V439.375Z" fill="#DADADA"/>
<path d="M260.661 439.375H348.677V527.25H260.661V439.375Z" fill="#EB6161"/>
<path d="M348.677 439.375H435.339V527.25H348.677V439.375Z" fill="#DADADA"/>
<path d="M435.339 439.375H522V527.25H435.339V439.375Z" fill="#EB6161"/>
<path d="M522 439.375H608.661V527.25H522V439.375Z" fill="#DADADA"/>
<path d="M608.661 439.375H695.323V527.25H608.661V439.375Z" fill="#EB6161"/>
<path d="M0 527.25H86.6615V615.125H0V527.25Z" fill="#EB6161"/>
<path d="M86.6615 527.25H173.323V615.125H86.6615V527.25Z" fill="#DADADA"/>
<path d="M173.323 527.25H261.339V615.125H173.323V527.25Z" fill="#EB6161"/>
<path d="M261.339 527.25H348V615.125H261.339V527.25Z" fill="#DADADA"/>
<path d="M348 527.25H434.661V615.125H348V527.25Z" fill="#EB6161"/>
<path d="M434.661 527.25H521.323V615.125H434.661V527.25Z" fill="#DADADA"/>
<path d="M521.323 527.25H607.984V615.125H521.323V527.25Z" fill="#EB6161"/>
<path d="M607.984 527.25H696V615.125H607.984V527.25Z" fill="#DADADA"/>
<path d="M0.677043 615.125H87.3385V703H0.677043V615.125Z" fill="#DADADA"/>
<path d="M87.3385 615.125H174V703H87.3385V615.125Z" fill="#EB6161"/>
<path d="M174 615.125H260.661V703H174V615.125Z" fill="#DADADA"/>
<path d="M260.661 615.125H348.677V703H260.661V615.125Z" fill="#EB6161"/>
<path d="M348.677 615.125H435.339V703H348.677V615.125Z" fill="#DADADA"/>
<path d="M435.339 615.125H522V703H435.339V615.125Z" fill="#EB6161"/>
<path d="M522 615.125H608.661V703H522V615.125Z" fill="#DADADA"/>
<path d="M608.661 615.125H695.323V703H608.661V615.125Z" fill="#EB6161"/>
</svg>
